<?xml version="1.0" standalone="no"?><!DOCTYPE svg PUBLIC "-//W3C//DTD SVG 1.1//EN" "http://www.w3.org/Graphics/SVG/1.1/DTD/svg11.dtd"><svg t="1734570414840" class="icon" viewBox="0 0 1024 1024" version="1.1" xmlns="http://www.w3.org/2000/svg" p-id="2250" xmlns:xlink="http://www.w3.org/1999/xlink" width="200" height="200"><path d="M85.3 490.4c66.6 180.3 101.4 323 234.4 354.3 204.4 48.2 249.9-51.8 338.9-69.1s166.3 25.4 271.7-89.9c34-37.3-241.7-189.9-339.8-204.4s-453.6-57.9-453.6-57.9l-51.6 67z" fill="#F9E3D9" p-id="2251"></path><path d="M362.2 686.6c-68.9 0-156.8-49.3-160.5-51.4-0.1 0-0.1-0.1-0.2-0.1C131 589.7 84.7 514.6 74.5 429c-3.1-26.3 0.4-57.4 10-87.4 10.6-33.4 28.2-64.6 50.9-90.1 32-36 90.3-78.9 186.3-78.9h1.6c63.2 0.5 120.5 24 161.4 66.3 46.3 47.9 69.6 116.7 67.4 199C550 564 453.8 644.4 412.5 673.1c-12.8 8.9-29.7 13.5-50.3 13.5z" fill="#FA8C28" p-id="2252"></path><path d="M321.7 176h1.6c124.5 0.9 229.9 91.8 225.3 261.7-1.8 109-75.4 189-138.1 232.6-13.2 9.2-30 12.8-48.4 12.8-68.8 0-158.8-51-158.8-51C139.8 591.2 88.9 520.3 78 428.6 67.1 337.1 136.7 176 321.7 176m0-7c-97.3 0-156.5 43.6-188.9 80.1-23 25.9-40.9 57.5-51.7 91.4-9.7 30.5-13.2 62.1-10.1 88.9 5.4 45 20.2 86.7 44 123.8 21.8 33.9 51 63.2 84.6 84.8 0.1 0.1 0.2 0.1 0.3 0.2 0.9 0.5 23.3 13.1 54.4 25.9 42.1 17.3 78.4 26 107.8 26 21.3 0 38.9-4.7 52.4-14.1 26.1-18.2 63.6-49.2 93.7-93.6 30.6-45.2 46.6-93.9 47.4-144.6 2.2-83.2-21.4-152.9-68.4-201.5-21-21.7-46-38.5-74.4-50-27.7-11.3-57.8-17.1-89.4-17.3h-1.7z" fill="#EE3D2D" p-id="2253"></path><path d="M313.3 206c14.4-29.4 105.8 4.6 133.6 42.7 29.1 40 16.6 120-15.4 139-21.4 12.7-87.6-20.7-71.2-49 16.4-28.2 24.8-50.1 17.6-70.1-11.4-31.3-26.2-38-48.2-40.9-13.7-1.7-18-18.4-16.4-21.7z" fill="#FCA02D" p-id="2254"></path><path d="M436.9 544c-30.9 4.5-61.8 2.7-92.7 0.9-18.2-0.9-36.3-2.7-54.5-5.5-37.3-6.4-71.8-20-97.2-50-26.3-32.7-45.4-66.3-53.6-107.2-0.9-7.3-3.6-14.5-4.5-21.8-1.8-18.2 0.9-36.3 3.6-54.5 3.6-24.5 14.5-44.5 28.2-64.5 6.8-9.9 13-20.2 20.3-28.8-84 53-116.1 151.7-108.5 216 10.9 91.8 61.8 162.6 125.4 203.5 0 0 144.5 81.8 207.2 38.2 52.2-36.3 112-97.9 131.6-180.5-13.9 9.2-27.8 18.5-42.5 26.1-21 10.8-40.1 25.3-62.8 28.1z" fill="#F27422" p-id="2255"></path><path d="M267 620.3c-37.3-17.3-98.3-57.4-120.8-92.7C91.7 442.2 89 407.7 95 323.2c-15.4 37.2-20.6 75.1-17 105.4 10.9 91.8 61.8 162.6 125.4 203.5 0 0 144.5 81.8 207.2 38.2 37-25.7 77.7-64.1 105.3-113.6-39.6 13.7-78.4 29.8-119.9 34.5-54.5 7.3-77.2 53.6-129 29.1z" fill="#F9581E" p-id="2256"></path><path d="M273.8 292.4c0.7-20.4 1.1-53.2-2.3-43.4-6.1 29.9-7.4 50.2-19.8 43.2-10.7-6-17-13.4-21.3-11.9-3.7 6.1 12.8 17.7 8.2 21.2-4.6 3.5-44.2-8.5-44.5-1.1-0.3 4.9 39.4 8.7 34.6 17-4.8 8.4-55.1 38.5-48.3 44.3 4 3.4 48.9-36.8 50.4-32.5 1.5 4.3-11.7 52.9-11.7 55.8 4.9 0.3 16.4-42.1 26.7-48.4 10.3-6.4 14.9-1.2 28.6 27.7 12.8 26.4-3.4-18.8-2.8-30.7 0.7-14.3 13.1-12.2 58.1 10 8.6-5.8-34.4-27.6-47.6-32.7 21.8-6.5 58-7.3 68.3-10.8 6.6-8.9-54.4-7.4-69 0.4 4.8-8.4 34-27.1 36-35.3 3.1-13.8-43.6 27.2-43.6 27.2z" fill="#F27422" p-id="2257"></path><path d="M267.5 302.2c4.2-15.8 1.9-19.8 1.9-19.8-4.5 15-6.5 14.7-10.8 16.2-5.5 1.9-17.9-7.4-17.9-7.4 7.6 13.7 0.4 18.1-10.8 16.2 5.8 2.8 7.5 10.9-1.3 15.8 16.3-5.6 11.5 2.8 5.6 19.2 17.7-24.2 25.4-21.1 34.2 1.8-3.9-25.5-0.2-28.7 19.7-24-19.6-6.8-23.6-10.2 2.8-17.3-19.8 1-19-2.2-8.1-12.6-14.1 9.6-15.3 11.9-15.3 11.9z" fill="#F9581E" p-id="2258"></path><path d="M264.4 304.2c2.5-12.4-1-14-3.3-19.6-2.6 7.6-15.8 18.3-12.4 23.2-8.4 1.6-5.8 9.9-14.9 10.5 9.7 4.8 22.8 9.9 24.4-1.4 5.4 7.8 10.7 5.6 22.9-8.8-12.7-0.4-16.7-3.9-16.7-3.9z" fill="#8ED45F" p-id="2259"></path><path d="M252.3 302.6c7.7-2.6 15.9-5.8 15 3.2-0.6 5.4-13.4 12.6-16.6 6-4.1-8.2 1.6-9.2 1.6-9.2z" fill="#DDA14A" p-id="2260"></path><path d="M267.1 302.4c0.3 0.9 0.3 1.9 0.2 3.3-0.5 5.2-12.6 12.1-16.3 6.7 0.3 0 0.5 0 0.8-0.1 6.5 0.3 11.1-4.9 15.3-9.9z" fill="#A06F2E" p-id="2261"></path><path d="M184 367.1c11.7-13.6 24.3-24.6 29.8-19.7 5.5 4.8 5.1 29-4.4 38-12.3 9-4.4-7.2-10.7-11.7-6.4-4.6-7.7 5.5-12.6 2.4-6.5-4.2-2.1-9-2.1-9zM280.1 330.6c-7.8-6-6 7.8-1.6 20.7 4.4 12.9 12.3 30.4 6 34.4-6.3 4.1 16.5 20.3 14.1-1-2.4-21.2-15.2-41.9-15.5-45.6s-3-8.5-3-8.5zM244 348.6c-4.3-4.3-11.6 30.8-23.6 43.5-12 12.7-1.3 15.8 0.4 15.2 1.7-0.6 8.6-2.9 12.5-19.6 3.9-16.6 10.7-39.1 10.7-39.1zM293.7 311.5c5.7 0 38 18.7 44.7 29.9s5.7-2.9-2.7-13.5-24.9-16.2-32-17.9c-11.4-2.8-10 1.5-10 1.5zM214.4 312.6c-31.7-14.2-57.8-1.8-52.3-1.4 11.8 0.8 44-0.6 47.1 3.1 3.2 3.7 10.9 4 10.1 1.4s-4.9-3.1-4.9-3.1zM229.7 290.4c-6.2-10.1-1.8-19.5-12-19.4s-36.6 0.4-23.1 8.8 35.1 12.6 35.1 12.6v-2zM258.5 284.2c-6.5-6.4-15.7-32.1-13.7-34.7 2-2.6 20.6-15.6 21.5-7.3 0.9 8.3-4.4 35.1-5.5 37.4-1.2 2.3-0.9 6-2.3 4.6zM286.6 270.1c1.3 1.9 4 2.1 5.6 0.4 4.4-5.1 12.4-9.6 18.2-11.9 7.2-2.8 12-4.7 7.3-7.7s-2.6-10-15 0.4c-12.6 10.4-18 16-16.1 18.8-0.1 0-0.1 0 0 0z" fill="#FCA02D" p-id="2262"></path><path d="M754 746c-43.5 0-87.6-13.2-124.3-37.2-42-27.5-74-68.7-92.6-119.1-28.5-77.7-51-222.2 118.9-315.9 0.1 0 0.1-0.1 0.2-0.1 8.6-4 18.3-6.1 29-6.1 24.1 0 52.9 10.5 83.3 30.3 29.4 19.2 59 46.2 85.5 78.1 60 72.1 94.3 155.5 94.3 228.8 0 93.4-42.1 105.6-118.7 127.7-6.2 1.8-12.6 3.6-19.2 5.6-17.7 5.2-36.7 7.9-56.4 7.9z" fill="#FA8C28" p-id="2263"></path><path d="M685.2 271.1c96.8 0 259.6 174.6 259.6 333.7 0 98.1-46.3 103.6-135.4 129.9-17.2 5.1-36 7.7-55.4 7.7-81.2 0-174-46.2-213.6-154-29.2-79.6-49.1-219.9 117.2-311.6 8.4-3.9 17.6-5.7 27.6-5.7m0-7v7-7c-11.2 0-21.4 2.2-30.5 6.4-0.1 0.1-0.3 0.1-0.4 0.2-172.2 95-149.3 241.4-120.4 320.2 9.8 26.6 23.1 50.6 39.8 71.5 15.4 19.4 33.7 36 54.2 49.4 19.2 12.5 40.1 22.1 62.2 28.5 21 6.1 42.5 9.2 64 9.2 20.1 0 39.4-2.7 57.4-8 6.6-2 13-3.8 19.2-5.6C869 724.8 899.3 716 920 698c22-19.2 31.8-47.9 31.8-93.2 0-38.8-9.3-79.9-27.5-122.1-16.3-37.7-39.7-75.4-67.6-109-26.7-32.2-56.6-59.4-86.3-78.8-31-20.1-60.5-30.8-85.2-30.8z" fill="#EE3D2D" p-id="2264"></path><path d="M567.7 494.9c-7.3-48.2 8.2-93.6 2.7-141.7-0.2-1.9-0.5-3.8-0.8-5.8-68.5 83.2-51.6 180-29.2 241.1 49.1 133.5 179.9 172.6 269 146.3 27.2-8 50.4-14.1 69.5-21.5-76.8-6.5-151.6-27.3-215.8-77.5-46.3-36.4-85.4-82.8-95.4-140.9z" fill="#F27422" p-id="2265"></path><path d="M548.6 483.1c5.1-37.5 10.9-75.5 3.8-111.7-48 77.3-32.2 161.9-11.9 217.1 49 133.5 179.8 172.6 268.9 146.3 5.4-1.6 10.6-3.1 15.7-4.6-25.3-1.4-50.5-4.8-75.6-11.8C644 689.3 531.4 605.7 548.6 483.1z" fill="#F9581E" p-id="2266"></path><path d="M865.9 717.2c-46.6 0-102-25.9-151.9-71.1-52.1-47.1-91.6-108.5-111.5-172.9-18.9-61.3-20.2-108-4.2-142.8 13.6-29.5 37.1-44 54.3-54.6 1.1-0.7 2.1-1.3 3.2-2 0.1-0.1 0.2-0.1 0.4-0.2 8.6-4 18.3-6.1 29-6.1 24.1 0 52.9 10.5 83.3 30.3 29.4 19.2 59 46.2 85.5 78.1 60 72.1 94.3 155.5 94.3 228.8 0 71.1-24.6 94.6-67 111.2-0.3 0.1-0.6 0.2-0.8 0.2-4.8 0.8-9.7 1.1-14.6 1.1z" fill="#FCA02D" p-id="2267"></path><path d="M685.2 271.1c96.8 0 259.6 174.6 259.6 333.7 0 67.6-22 91.2-64.8 108-4.6 0.6-9.3 0.8-14.1 0.8-93.6 0-218.5-106.6-260-241.5-43.6-141.7 18.2-174.4 51.8-195.3 8.3-3.9 17.5-5.7 27.5-5.7m0-7c-11.2 0-21.4 2.2-30.5 6.4-0.2 0.1-0.5 0.2-0.7 0.4-1 0.6-2.1 1.3-3.2 2-17.5 10.8-41.6 25.6-55.6 56.1-7.6 16.5-11.4 36-11.3 58.1 0.1 25.1 5.3 54.5 15.3 87.2 10.2 33.2 25.6 65.7 45.8 96.4 19 29 41.5 55.3 66.7 78 50.6 45.7 106.8 72 154.3 72 5.1 0 10.1-0.3 14.9-0.9 0.6-0.1 1.2-0.2 1.7-0.4 25.1-9.8 41.1-21.4 51.7-37.6 11.9-18.1 17.5-42.5 17.5-76.9 0-38.8-9.3-79.9-27.5-122.1-16.3-37.7-39.7-75.4-67.6-109-26.7-32.2-56.6-59.4-86.3-78.8-31-20.2-60.5-30.9-85.2-30.9z" fill="#EE3D2D" p-id="2268"></path><path d="M865.9 704.6c-43.5 0-95.8-24.7-143.5-67.8-50.4-45.6-88.7-105-107.9-167.2-17.7-57.4-19.3-102.4-4.8-133.8 12-26.1 32.8-38.9 49.5-49.1 0.9-0.6 1.9-1.1 2.7-1.7 6.8-3.1 14.6-4.7 23.2-4.7 44.2 0 106.6 40.8 159.1 103.9 26.9 32.4 49.5 68.7 65.2 105.1 17.4 40.2 26.2 79.1 26.2 115.7 0 31.1-4.7 52.7-14.8 68-8.7 13.2-21.6 22.5-43.1 31-3.8 0.4-7.8 0.6-11.8 0.6z" fill="#FAF0CD" p-id="2269"></path><path d="M413.2 834.9c-11.6 0-22.8-1.2-33.2-3.7-18.6-4.3-28.4-11.7-29.4-21.9-1.6-18.1 25.7-42.5 83.6-74.8 39.9-22.2 80.7-40.3 84.5-41.9l110.6-73.4c0.6-0.4 1.3-0.6 1.9-0.6 0.9 0 1.8 0.4 2.5 1.1 1 1.1 24.8 26.5 13.6 75-5.2 22.7-38.4 57.6-82.5 86.8-51 33.9-106.3 53.4-151.6 53.4z" fill="#FA8C28" p-id="2270"></path><path d="M631.3 622.1s23.6 24.5 12.7 71.8c-9.8 42.6-129.4 137.5-230.9 137.5-11.1 0-21.9-1.1-32.4-3.6-106.5-24.9 139.7-132.1 139.7-132.1l110.9-73.6m0-7c-1.3 0-2.7 0.4-3.9 1.2l-110.3 73.3c-5.2 2.3-45.3 20.1-84.6 42-24.8 13.8-44.4 26.5-58.3 37.8-19.3 15.6-28.1 28.8-27.1 40.4 1.1 11.9 11.9 20.3 32.1 25 10.7 2.5 22.1 3.8 34 3.8 24.7 0 51.6-5.4 80-15.9 24.5-9.2 50-22.3 73.7-38 21.7-14.4 41.2-30.4 56.3-46.3 10.7-11.3 24.3-27.8 27.7-42.7 11.6-50.4-13.4-77.1-14.5-78.2-1.4-1.7-3.2-2.4-5.1-2.4z" fill="#EE3D2D" p-id="2271"></path><path d="M642.2 641.5c1.5 29.6-8.1 57.5-28.2 81.4-20 24.5-45.4 41.8-72.7 54.5-39.8 17.9-79.3 36.8-119.4 53.7 99.5-5.2 212.5-95.9 222-137.2 5.4-22.8 2.6-40.4-1.7-52.4z" fill="#F9581E" p-id="2272"></path><path d="M644.3 648.3c-0.4 3.6-0.9 7.1-1.6 10.6 0.7-2.5 1.4-4.9 2.3-7.3-0.2-1.1-0.5-2.3-0.7-3.3z" fill="#F9581E" p-id="2273"></path><path d="M404.2 582c-0.5 0-0.9-0.1-1.4-0.3-0.4-0.2-41.7-17.5-126.8-41.7h-0.1c-53.9-17.1-89.5-36-112-59.5-20.4-21.4-31.2-46.9-35.8-85.1-0.2-1.5 0.6-2.9 1.9-3.6 17.8-8.9 37.1-13.4 57.4-13.4 39.2 0 78 16.9 107.4 31.6 51.7 25.9 99.9 98.8 101.9 118.2 0.2 1.8 0.4 3.7 0.5 5.5 1.5 16.2 2.7 30.2 15.2 38.2 1 0.7 1.6 1.8 1.6 3s-0.7 2.3-1.8 2.9l-6.4 3.6c-0.4 0.4-1 0.6-1.6 0.6z" fill="#5EE37F" p-id="2274"></path><path d="M187.4 381.9c36.3 0 72.3 14.4 105.9 31.2 50.9 25.4 98.1 97.2 99.9 115.4 1.8 18.2 1.8 36.3 17.3 46.3l-6.4 3.6s-40.9-17.3-127.2-41.8c-109-34.5-137.2-74.5-145.4-141.7 18.6-9.2 37.3-13 55.9-13m0-7c-20.8 0-40.7 4.6-59 13.8-2.6 1.3-4.2 4.2-3.8 7.1 2.3 18.8 5.9 33.9 11.3 47.4 6 15.1 14.4 28.1 25.5 39.7 22.9 24 58.9 43.2 113.5 60.4 0.1 0 0.1 0 0.2 0.1 84.9 24.1 126 41.3 126.4 41.5 0.9 0.4 1.8 0.6 2.7 0.6 1.2 0 2.4-0.3 3.5-0.9l6.4-3.6c2.1-1.2 3.5-3.4 3.5-5.9 0.1-2.4-1.1-4.7-3.2-6.1-11-7.1-12.2-20.3-13.6-35.6-0.2-1.8-0.3-3.7-0.5-5.6-1.1-11.2-14.7-35.3-33-58.6-13.1-16.6-39.6-46.8-70.7-62.4-29.9-14.8-69.2-31.9-109.2-31.9z" fill="#3A8F4F" p-id="2275"></path><path d="M160.3 471.1C181.5 497 217 517.7 277 536.7c86.3 24.5 127.2 41.8 127.2 41.8l6.4-3.6c-10.4-6.7-13.8-17.2-15.5-28.9-5.6-1.7-11.3-2.9-17.2-3.8-78.1-10.5-151.9-31.7-217.6-71.1z" fill="#2CCF54" p-id="2276"></path><path d="M382.4 534c-23.6-8.2-45.4-16.4-66.3-30.9-35.4-23.6-70.9-36.3-99.9-65.4-16.4-15-30.6-33.9-37.2-55.5-15.8 1-31.6 4.9-47.2 12.8 3.7 30.2 11.4 55 28.7 76.2 65.7 39.4 139.5 60.6 217.5 71 5.9 0.8 11.7 2.1 17.2 3.8-0.4-2.5-0.6-5.1-0.9-7.7-4-1.7-8-3.1-11.9-4.3z" fill="#3AD961" p-id="2277"></path><path d="M386.5 570.6c-0.3 0-0.7 0-1-0.1-91.4-26.8-231-137.8-257.1-173-1.2-1.6-0.8-3.7 0.7-4.9 1.6-1.2 3.7-0.8 4.9 0.7 11.8 15.8 50.9 51.3 103 88.5 33.6 24 97.7 66.5 150.5 81.9 1.9 0.5 2.9 2.5 2.4 4.3-0.5 1.6-1.9 2.6-3.4 2.6z" fill="#3A8F4F" p-id="2278"></path><path d="M453.4 607.4c-2.8 0-3.6-1.8-7.3-10.3l-3.4-8.2c-0.2-0.6-0.3-1.2-0.2-1.8 3.3-22.5 6.6-50.7 7.2-56.7-21.6-31.2-35.2-64-40.2-97.5-4.9-32.6-1.7-65.4 9.6-97.3 9.3-26.4 21.6-44 37.5-53.7 13.8-8.4 27.9-9.3 39.2-10.1 1.5-0.1 3-0.2 4.4-0.3h0.3c0.6 0 1.3 0.2 1.8 0.5 23.8 14.4 38 29.6 46 49.3 9.8 24.1 10.2 55.5 1.1 96.2-13 57.9-73.5 105.8-82.9 113l-0.1 0.8c-5.8 32.3-11.3 62.7-9.6 70.1 0.3 1.4 0.7 3.2-0.5 4.7-0.8 0.8-1.9 1.3-2.9 1.3z" fill="#5EE37F" p-id="2279"></path><path d="M500.5 275c39.1 23.6 64.6 56.1 45.4 141.7-13.6 60.9-82.7 111.8-82.7 111.8-6.4 35.4-11.8 65.4-10 73.6 0.3 1.2 0.3 1.8 0.1 1.8-0.9 0-7.4-16.3-7.4-16.3 3.6-24.5 7.3-56.3 7.3-58.1-44.5-63.6-52.7-130.8-30.9-192.6 21.8-61.9 55.5-60.1 78.2-61.9m0-7h-0.6c-1.4 0.1-2.9 0.2-4.4 0.3-23 1.6-57.9 3.9-79.8 66.1-11.5 32.5-14.7 65.8-9.7 99 5.1 33.6 18.5 66.5 40.1 97.9-0.8 7.8-3.8 33.9-7 55.2-0.2 1.2 0 2.5 0.4 3.6 0.1 0.2 1.7 4.2 3.4 8.3 1.1 2.5 1.9 4.4 2.6 5.9 1.2 2.6 3.1 6.5 7.8 6.5 2.2 0 4.2-1 5.5-2.6 2.3-2.8 1.6-6 1.2-7.6-1.5-6.6 4.4-39.2 9.6-68.2 5.4-4.2 19.5-15.7 34.9-32.2 26-27.9 42.2-55.5 48.2-82 9.3-41.4 8.9-73.5-1.2-98.3-10.7-26.2-30.9-41-47.4-51-1.1-0.5-2.4-0.9-3.6-0.9z" fill="#3A8F4F" p-id="2280"></path><path d="M485 411.3c6.4-37.3 13.6-70.9 23.6-107.2 3.4-11.4 14.1-6.5 24.3-2-8.7-10.9-19.9-19.5-32.5-27.1-22.7 1.8-56.3 0-78.1 61.8-21.8 61.8-13.6 129 30.9 192.6 0 1.8-3.6 33.4-7.2 57.9 3.4-3.5 6.5-7.3 9.1-11.4 1.9-13 4.9-29.5 8.1-47.4 0 0 1-0.8 2.9-2.2 0.7-31 17.1-106.8 18.9-115z" fill="#3AD961" p-id="2281"></path><path d="M444.6 578.8h-0.5c-1.9-0.3-3.3-2-3-3.9 4.8-36.6 33.8-236.2 55.6-301.4 0.6-1.8 2.6-2.8 4.4-2.2 1.8 0.6 2.8 2.6 2.2 4.4-21.5 64.6-50.5 263.6-55.3 300.1-0.2 1.7-1.7 3-3.4 3z" fill="#3A8F4F" p-id="2282"></path><path d="M397.1 831.7c-7.3 0-14.8-0.3-22.3-0.8h-0.1c-34.3-3.4-65.8-15.2-93.8-35.1-24.9-17.7-46.4-41.3-64.1-70.2-40.1-65.6-55.1-154-34.9-205.7 0.5-1.4 1.8-2.2 3.3-2.2 0.3 0 0.5 0 0.8 0.1 61.1 13.5 442.3 100 446.1 100.9 1.9 0.4 3 2.3 2.7 4.1-12.4 58.9-37.9 109.1-74 145-42.6 42.4-97.6 63.9-163.7 63.9z" fill="#FAF0CD" p-id="2283"></path><path d="M185.2 521.2c61.8 13.6 446.1 100.9 446.1 100.9-22.5 107.2-94.3 206.1-234.2 206.1-7.2 0-14.5-0.3-22-0.8-163.6-16.3-222.6-222.6-189.9-306.2m0-7c-2.8 0-5.4 1.7-6.5 4.5-9.7 24.8-11.8 59.1-5.9 96.7 6.1 39.1 20.7 78.9 41 112.1 17.9 29.3 39.8 53.3 65.1 71.2 28.5 20.2 60.6 32.2 95.5 35.7h0.2c7.6 0.5 15.2 0.8 22.5 0.8 34.5 0 66.5-5.9 95.1-17.7 26.5-10.9 50.4-26.8 71-47.3 36.6-36.4 62.5-87.2 75-146.8 0.8-3.7-1.6-7.4-5.3-8.3-3.8-0.9-385.1-87.4-446.1-100.9-0.6 0.1-1.1 0-1.6 0z" fill="#EE3D2D" p-id="2284"></path><path d="M620.1 619.6c-24 105.9-98.5 208-243.8 197.7-149.5-15-206.3-207.5-183.9-294.5-2.7-0.6-5.1-1.1-7.2-1.6-32.7 83.6 26.3 289.8 189.9 306.2 154.5 10.9 232.6-92.7 256.2-205.3 0 0-4-0.9-11.2-2.5z" fill="#FCA02D" p-id="2285"></path><path d="M398.5 603.8c-22.7-22-119.4 39.2-152.2 61-7.4 4.9-10.7 14.2-8 22.6 16.5 50.9 99.1 110.6 134.5 93.3 22.5-11.1 45.9-157.3 25.7-176.9z" fill="#FCA02D" p-id="2286"></path><path d="M434.6 603.5c-24.9 9.6-29.7 93.1-28.4 168.1 0.1 7.4 6 13.4 13.4 13.8 76.7 3.6 123.4-43 129.5-62 4.7-14.7-88.2-130-114.5-119.9z" fill="#FCA02D" p-id="2287"></path><path d="M599.8 615c-33.3-7.6-89.4-20.3-150-34-0.2 8.4 0.1 8.3 5.2 14.8 25.5 32.6 77.3 77.5 98 94.9 5.4 4.5 13.6 3.5 17.6-2.3 11.2-16.3 21.8-46.3 29.2-73.4zM227 649.4c7.7 5.6 108-32.3 149.9-63.6 8.6-6.4 10-13.6 9.9-19.1-67.5-15.3-132.9-30-172.3-38.9-8.5 33.2 0.8 113 12.5 121.6z" fill="#FCA02D" p-id="2288"></path><path d="M232.4 541.2c-11.9-0.4-13.6 7.3-5.5 8.2 8.2 0.9 149 26.3 144.5 21.8s-109-29.1-139-30zM230 566.9c-8.8 0.8-4.5 11.4 1.6 11.5s108.1 8.5 104.1 4.4c-4-4-83.7-17.9-105.7-15.9zM255.9 591c-7.1 2-5.7 9.5-0.6 8.8 5.1-0.7 95.3-3.7 91.2-7.2-4.2-3.4-72.9-6.5-90.6-1.6zM229.7 622.1c-8 3.9-4.6 14.9 1.2 12.8 5.8-2.1 109.9-29.5 104.8-31.8-5.2-2.4-86 9.2-106 19zM382.1 749.2c-3.2 8.3-14.5 5.9-12.9 0 1.6-5.9 19.8-112.1 22.6-107.2 2.8 4.9-1.7 86.4-9.7 107.2zM262.1 678.8c-5.6 6.9 2.2 15.5 6.5 11.1s86.9-73.5 81.2-73.4c-5.7 0-73.8 44.9-87.7 62.3zM278.4 711.9c-4.5 7.7 4.4 15 8.1 10 3.6-4.9 75.1-85.5 69.5-84.7-5.6 0.9-66.4 55.4-77.6 74.7zM322.9 711.8c-2.7 8.5 7.6 13.7 10.1 8 2.5-5.6 54.8-99.7 49.5-97.7-5.3 2.2-52.8 68.5-59.6 89.7zM337 763.5c0 6.6 11.3 7.8 12 3.2 0.7-4.6 22.4-83.8 18-81.1-4.4 2.8-29.9 61.3-30 77.9zM529.3 701.4c4 7.3-3.7 14.5-7 9.8-3.3-4.7-66.9-80.2-61.9-79.5 4.9 0.7 58.9 51.5 68.9 69.7zM416 752.1c1.8 8.3 11.9 7.3 11.2 1.5-0.7-5.8-4-109-7-104.7-3.1 4.3-8.7 82.5-4.2 103.2zM553 672.1c7.4 4.1 13.3-4.1 8.5-7.4-4.8-3.4-84.5-69.1-83.2-63.9 1.3 5.1 56.2 60.9 74.7 71.3zM447.7 758.9c2.9 7.9 12.8 5.3 11.3-0.3-1.5-5.7-18.7-107-21.1-102.2-2.4 4.7 2.5 82.7 9.8 102.5zM471.6 724.9c4.4 7 13.5 2.2 11-3s-39.5-99.8-40.9-94.6c-1.4 5.2 18.9 80.1 29.9 97.6zM515 744.1c4.6 3.9 11.5-4.1 8.7-7.3-2.8-3.2-45.9-65.8-46.4-60.8s26.2 58.4 37.7 68.1zM570.8 631.5c6 0.6 7-10 2.9-11s-75.4-27.5-72.9-23.1c2.4 4.3 55 32.7 70 34.1z" fill="#F9C157" p-id="2289"></path><path d="M753.7 467.7c3.5-1.1-110.2-100.2-119.8-120.5s26.2-45.6 44.5-49.3c18.3-3.7 46.2-5.9 51 25.5s29.3 138.2 27.7 141.2c-1.7 3-3.4 3.1-3.4 3.1zM768.9 476.4c-5.7-9.6-23.4-143.3-23.7-151.2-0.3-7.9 12.1-4.5 19.3 1.2 0 0 87.7 64.5 98.8 98.7 2 4.9 3.2 12.7-7.2 17.1-10.3 4.4-69.8 30.6-76.7 33.9-6.8 3.2-10.5 0.3-10.5 0.3zM784.3 482.9c20.4-7.2 81.4-26.1 88.7-27.5 7.3-1.3 15.7 2.4 27.6 24.7s25.1 99.1 21.5 123c-3.6 23.9-21 1.9-26.7-3-5.7-4.9-104.7-95.8-110.4-101.7-5.8-6-10.6-12-0.7-15.5zM782.5 507.3c11 9.1 114.4 109.8 119.4 117.9 4.9 8.1 9.1 21.3-4.1 33.2-13.3 11.9-82.6 40.6-92.4 3.9-9.8-36.8-27.6-138.2-28.8-144.4-1.3-6.2 1.2-14.6 5.9-10.6zM765.9 500.9c3.4 16.4 19.3 136.5 19.5 141.7s-7.6 15.8-18 8c-10.4-7.8-89.7-65.4-105.8-100.9-5-11.1 3.8-19.8 18.2-26.6 14.4-6.8 65.7-28.6 72.9-32s13.2 9.8 13.2 9.8zM743.9 486.5c-27.2 9.6-79.6 26.1-84.8 28.3s-21.3-7-27.6-31.5c-6.3-24.5-23.5-81.1-15.9-111 5.4-19 23.8 3 32.9 11.5 9.1 8.5 90.2 83.2 94.8 88s10.1 11.4 0.6 14.7z" fill="#FCA02D" p-id="2290"></path><path d="M823.5 666.8c4 7.4 13.2 3.6 10.9-1.8-2.3-5.4-34.8-103.2-36.4-98.1-1.7 5 15.3 81.3 25.5 99.9zM855 664c4.9 6.7 13.4 1.4 10.4-3.6s-47.9-96.9-48.8-91.7c-0.9 5.3 26 78.5 38.4 95.3zM867.2 615.3c6.6 4.7 13-3.4 8.7-7.1s-74-76-73.2-70.7c0.7 5.4 47.8 66.1 64.5 77.8zM652.1 495.9c-5.6-1.4-5-11.8-1-11.4 3.9 0.4 73.7-1.8 70.8 1.5-3 3.4-55.7 13.4-69.8 9.9zM637.1 392.4c-7.6-3.2-12.2 5.8-7.2 8.5 5 2.8 89.2 58.7 87.4 53.7-1.8-5-61.2-54.2-80.2-62.2zM645.7 433c-7.9-1.5-10.5 8.5-5.1 10.1s97.8 38.6 94.9 34c-2.7-4.6-69.9-40.3-89.8-44.1zM633.4 454.5c-4.5 0.4-3 10.9 0.2 11.2s60.7 14.6 58 10.8c-2.8-3.8-47-23-58.2-22zM766.6 618.9c-1.6 8.2-12 8.7-11.4 3 0.6-5.7 1.6-105.6 4.8-101.9 3.2 3.8 10.7 78.3 6.6 98.9zM679.1 547.6c-4.2 5.2 1.1 11.1 4.4 7.8 3.3-3.3 65.3-55.5 61.2-55.3-4.1 0.2-54.9 34.6-65.6 47.5zM695.7 574.1c-3 6.7 6 11.4 8.6 7s55.6-77.4 50.7-76-51.8 52.3-59.3 69zM729.3 608.5c0.5 6 10.8 5.1 11 0.8 0.2-4.2 12.6-79.1 8.9-75.9-3.7 3.2-21.3 60.1-19.9 75.1zM659.5 355.8c-3.7-7.4 4.1-14.3 7.1-9.6 3 4.8 62.4 82.6 57.6 81.8-4.7-0.9-55.5-53.7-64.7-72.2zM716.6 334.4c-4-7.1-13.1-2.7-10.8 2.6 2.3 5.3 34.9 101.2 36.5 96 1.6-5.1-15.5-80.7-25.7-98.6zM675 313.6c-4.3-4.1-11.3 3.7-8.7 7 2.6 3.3 42.4 67.4 43.1 62.5 0.6-5-23.6-59.4-34.4-69.5zM759 355c0.9-6.9 9-8 8.9-3.2-0.2 4.8 3.9 87.8 1.2 84.9-2.7-3-12.4-64.3-10.1-81.7zM849.3 424.7c2.7-3.6-3.2-8.6-5.5-6.5-2.3 2.2-46.8 36.5-43.1 36.8 3.6 0.2 41.8-21.4 48.6-30.3zM832.7 394.2c2.4-6.2-4.6-9.9-6.7-5.8-2.1 4.1-44.5 73-40.6 71.5 3.8-1.5 41.3-50.2 47.3-65.7zM811.8 378c0.3-5-7.6-5.8-8.3-2.3-0.7 3.5-19.7 64.1-16.5 62s23.9-47.1 24.8-59.7zM794 357.9c-0.6-4.7-8.7-3.7-8.8-0.3 0 3.4-7.5 63.1-4.7 60.4 2.9-2.6 15.1-48.3 13.5-60.1zM904 585c8.5 3.8 13.8-4.8 8.1-7.9-5.6-3.2-99.6-66-97.6-60.8 2 5.1 68.2 59.1 89.5 68.7zM905.5 545.8c8.1 1.2 10.5-8.7 4.9-10.1-5.5-1.4-100.6-34.2-97.6-29.9 3 4.4 72.4 37.1 92.7 40zM886.6 505.1c6.8-1.2 5.5-11.4 0.7-11.2s-90.9-4.1-87.1-0.7 69.3 14.9 86.4 11.9zM885.1 475.2c5.1-2.9 0.3-12.2-3.6-10.7s-76 19.2-71.6 21.4c4.3 2.2 62.3-3.5 75.2-10.7z" fill="#F9C157" p-id="2291"></path></svg>